<svg width="25" height="18" viewBox="0 0 25 18" xmlns="http://www.w3.org/2000/svg">
<path d="M24.7074 1.70757L8.70745 17.7076C8.61457 17.8005 8.50428 17.8743 8.38289 17.9246C8.26149 17.975 8.13136 18.0009 7.99995 18.0009C7.86853 18.0009 7.7384 17.975 7.61701 17.9246C7.49561 17.8743 7.38532 17.8005 7.29245 17.7076L0.292446 10.7076C0.104805 10.5199 -0.000610352 10.2654 -0.000610352 10.0001C-0.000610352 9.7347 0.104805 9.48021 0.292446 9.29257C0.480086 9.10493 0.734582 8.99951 0.999946 8.99951C1.26531 8.99951 1.5198 9.10493 1.70745 9.29257L7.99995 15.5863L23.2924 0.292567C23.4801 0.104927 23.7346 -0.000488283 23.9999 -0.000488281C24.2653 -0.000488279 24.5198 0.104927 24.7074 0.292567C24.8951 0.480208 25.0005 0.734704 25.0005 1.00007C25.0005 1.26543 24.8951 1.51993 24.7074 1.70757Z"/>
</svg>
